<?xml version="1.0" encoding="UTF-8"?>
<!DOCTYPE svg PUBLIC "-//W3C//DTD SVG 1.1//EN" "http://www.w3.org/Graphics/SVG/1.1/DTD/svg11.dtd">
<!-- Creator: CorelDRAW 2020 (64 Bit) -->
<svg xmlns="http://www.w3.org/2000/svg" xml:space="preserve" width="705.556mm" height="705.556mm" version="1.1" style="shape-rendering:geometricPrecision; text-rendering:geometricPrecision; image-rendering:optimizeQuality; fill-rule:evenodd; clip-rule:evenodd"
viewBox="0 0 70555.56 70555.56"
 xmlns:xlink="http://www.w3.org/1999/xlink"
 xmlns:xodm="http://www.corel.com/coreldraw/odm/2003">
 <defs>
  <style type="text/css">
   <![CDATA[
    .fil11 {fill:#FEFEFE;fill-rule:nonzero}
    .fil1 {fill:#373435;fill-rule:nonzero}
    .fil0 {fill:#5A2B39;fill-rule:nonzero}
    .fil6 {fill:url(#id0)}
    .fil9 {fill:url(#id1)}
    .fil7 {fill:url(#id2)}
    .fil8 {fill:url(#id3)}
    .fil3 {fill:url(#id4)}
    .fil10 {fill:url(#id5)}
    .fil2 {fill:url(#id6)}
    .fil5 {fill:url(#id7)}
    .fil12 {fill:url(#id8)}
    .fil4 {fill:url(#id9)}
   ]]>
  </style>
  <linearGradient id="id0" gradientUnits="userSpaceOnUse" x1="25713.15" y1="35064.04" x2="45644.88" y2="49948.12">
   <stop offset="0" style="stop-opacity:1; stop-color:#F8EFDA"/>
   <stop offset="0.0313725" style="stop-opacity:1; stop-color:#F8EFDA"/>
   <stop offset="0.509804" style="stop-opacity:1; stop-color:#ECE3CB"/>
   <stop offset="0.639216" style="stop-opacity:1; stop-color:#BFAD91"/>
   <stop offset="0.729412" style="stop-opacity:1; stop-color:#AA957B"/>
   <stop offset="1" style="stop-opacity:1; stop-color:#AA957B"/>
  </linearGradient>
  <linearGradient id="id1" gradientUnits="userSpaceOnUse" xlink:href="#id0" x1="28151.54" y1="31798.72" x2="48083.26" y2="46682.8">
  </linearGradient>
  <linearGradient id="id2" gradientUnits="userSpaceOnUse" xlink:href="#id0" x1="26484.65" y1="34030.91" x2="46416.37" y2="48914.98">
  </linearGradient>
  <linearGradient id="id3" gradientUnits="userSpaceOnUse" xlink:href="#id0" x1="27436.25" y1="32756.59" x2="47367.97" y2="47640.66">
  </linearGradient>
  <linearGradient id="id4" gradientUnits="userSpaceOnUse" xlink:href="#id0" x1="23039.67" y1="38644.18" x2="42971.4" y2="53528.26">
  </linearGradient>
  <linearGradient id="id5" gradientUnits="userSpaceOnUse" xlink:href="#id0" x1="28758.67" y1="30985.7" x2="48690.39" y2="45869.78">
  </linearGradient>
  <linearGradient id="id6" gradientUnits="userSpaceOnUse" xlink:href="#id0" x1="22176.9" y1="39799.54" x2="42108.62" y2="54683.62">
  </linearGradient>
  <linearGradient id="id7" gradientUnits="userSpaceOnUse" xlink:href="#id0" x1="24809.12" y1="36274.66" x2="44740.84" y2="51158.74">
  </linearGradient>
  <linearGradient id="id8" gradientUnits="userSpaceOnUse" xlink:href="#id0" x1="27782.73" y1="25798.74" x2="40622.92" y2="36800.02">
  </linearGradient>
  <linearGradient id="id9" gradientUnits="userSpaceOnUse" xlink:href="#id0" x1="24027.09" y1="37321.89" x2="43958.82" y2="52205.97">
  </linearGradient>
 </defs>
 <g id="Camada_x0020_1">
  <metadata id="CorelCorpID_0Corel-Layer"/>
  <polygon class="fil0" points="-435.7,70991.26 70985.62,70991.26 70985.62,-430.06 -435.7,-430.06 "/>
  <path class="fil1" d="M67687.53 7959.28l36.84 0 0 -123.6 34.68 0c33.48,1.2 48.72,16.08 57.24,55.44 8.04,35.52 14.4,60.12 18.96,68.16l38.16 0c-6,-11.04 -12.72,-38.52 -22.08,-78.36 -6.72,-29.64 -19.8,-49.92 -41.88,-57.48l0 -1.32c30.12,-10.2 53.76,-35.16 53.76,-72.84 0,-21.96 -8.04,-41.52 -22.44,-54.12 -17.76,-16.08 -43.2,-23.28 -82.56,-23.28 -25.32,0 -52.08,2.04 -70.68,5.88l0 281.52zm36.84 -255.72c5.88,-1.68 18.6,-3.36 36.36,-3.36 39,0.48 65.64,16.56 65.64,53.28 0,32.64 -24.96,54.24 -64.32,54.24l-37.68 0 0 -104.16zm354.36 160.08c0.36,-3.84 1.2,-9.72 1.2,-17.4 0,-37.68 -17.76,-96.48 -84.6,-96.48 -59.76,0 -96.12,48.6 -96.12,110.4 0,61.92 37.68,103.32 100.8,103.32 32.52,0 54.96,-6.72 68.16,-12.72l-6.36 -26.64c-14.04,6 -30.12,10.56 -56.76,10.56 -37.2,0 -69.48,-20.64 -70.32,-71.04l144 0zm-143.52 -26.76c3,-25.8 19.44,-60.48 57.12,-60.48 41.88,0 52.08,36.84 51.72,60.48l-108.84 0zm221.4 122.4l1.68 -33.84 1.2 0c15.24,27.12 39,38.52 68.64,38.52 45.72,0 91.8,-36.48 91.8,-109.68 0.48,-62.16 -35.52,-104.52 -86.28,-104.52 -33.12,0 -56.76,14.76 -69.84,37.68l-0.96 0 0 -128.76 -36.72 0 0 247.68c0,18.24 -0.96,39 -1.8,52.92l32.28 0zm6.24 -118.92c0,-6 1.32,-11.04 2.16,-15.24 7.68,-28.44 31.32,-45.72 56.76,-45.72 39.72,0 60.96,35.04 60.96,76.2 0,46.92 -23.28,78.72 -62.28,78.72 -27.12,0 -48.6,-17.76 -55.8,-43.68 -0.84,-4.2 -1.8,-8.88 -1.8,-13.44l0 -36.84zm368.76 23.28c0.36,-3.84 1.2,-9.72 1.2,-17.4 0,-37.68 -17.76,-96.48 -84.6,-96.48 -59.76,0 -96.12,48.6 -96.12,110.4 0,61.92 37.68,103.32 100.8,103.32 32.52,0 54.96,-6.72 68.16,-12.72l-6.36 -26.64c-14.04,6 -30.12,10.56 -56.76,10.56 -37.2,0 -69.48,-20.64 -70.32,-71.04l144 0zm-143.52 -26.76c3,-25.8 19.44,-60.48 57.12,-60.48 41.88,0 52.08,36.84 51.72,60.48l-108.84 0zm330.6 86.88c-10.56,4.56 -24.6,10.08 -45.72,10.08 -40.68,0 -71.16,-29.16 -71.16,-76.56 0,-42.84 25.44,-77.52 72.36,-77.52 20.4,0 34.32,4.68 43.2,9.72l8.52 -28.8c-10.2,-5.04 -29.64,-10.56 -51.72,-10.56 -66.84,0 -110.04,45.72 -110.04,108.84 0,62.64 40.2,104.52 102,104.52 27.6,0 49.08,-6.72 58.92,-11.88l-6.36 -27.84zm197.16 35.52c-2.52,-13.92 -3.36,-31.32 -3.36,-49.08l0 -76.68c0,-41.04 -15.24,-83.76 -77.88,-83.76 -25.8,0 -50.4,7.2 -67.32,18.12l8.52 24.6c14.28,-9.36 34.2,-15.24 53.28,-15.24 41.88,0 46.56,30.48 46.56,47.4l0 4.2c-79.2,-0.36 -123.24,26.76 -123.24,76.2 0,29.64 21.24,58.92 62.76,58.92 29.16,0 51.12,-14.4 62.64,-30.48l1.2 0 3 25.8 33.84 0zm-39.36 -69c0,3.84 -0.84,8.04 -2.16,11.88 -5.88,17.28 -22.8,34.2 -49.44,34.2 -19.08,0 -35.16,-11.4 -35.16,-35.52 0,-39.72 46.08,-46.92 86.76,-46.08l0 35.52zm275.16 69l102 -285.36 -39.36 0 -48.24 141c-12.72,37.2 -24.6,73.2 -32.64,106.2l-0.84 0c-7.56,-33.36 -18.24,-68.04 -30.48,-106.68l-44.4 -140.52 -39.84 0 93.12 285.36 40.68 0zm162.23 0l0 -204.84 -37.2 0 0 204.84 37.2 0zm-18.6 -285.72c-13.56,0 -23.28,10.08 -23.28,23.28 0,12.72 9.24,22.8 22.44,22.8 14.76,0 24.12,-10.08 23.64,-22.8 0,-13.2 -8.88,-23.28 -22.8,-23.28zm57.24 285.72l166.32 0 0 -29.64 -119.76 0 0 -0.84c9.24,-10.56 17.76,-20.76 26.16,-32.16l91.44 -118.92 0.48 -23.28 -156.24 0 0 30 110.88 0 0 0.84c-9.24,11.04 -17.76,20.76 -26.64,31.8l-92.64 120.6 0 21.6zm241.68 0l0 -204.84 -37.2 0 0 204.84 37.2 0zm-18.6 -285.72c-13.56,0 -23.28,10.08 -23.28,23.28 0,12.72 9.24,22.8 22.44,22.8 14.76,0 24.12,-10.08 23.64,-22.8 0,-13.2 -8.88,-23.28 -22.8,-23.28zm167.28 76.2c-56.76,0 -101.64,40.2 -101.64,108.72 0,64.8 42.72,105.48 98.28,105.48 49.44,0 102,-33 102,-108.84 0,-62.64 -39.84,-105.36 -98.64,-105.36zm-0.84 27.96c44.04,0 61.32,43.92 61.32,78.72 0,46.08 -26.64,79.56 -62.16,79.56 -36.48,0 -62.28,-33.84 -62.28,-78.72 0,-39 19.08,-79.56 63.12,-79.56zm146.52 181.56l37.2 0 0 -300.6 -37.2 0 0 300.6zm137.16 0l0 -204.84 -37.2 0 0 204.84 37.2 0zm-18.6 -285.72c-13.56,0 -23.28,10.08 -23.28,23.28 0,12.72 9.24,22.8 22.44,22.8 14.76,0 24.12,-10.08 23.64,-22.8 0,-13.2 -8.88,-23.28 -22.8,-23.28zm139.32 285.72l211.68 0 0 -296.28 -211.68 0 0 296.28zm105.84 -167.16l-72 -108 144 0 -72 108zm12.72 18.96l72 -107.88 0 215.88 -72 -108zm-84.72 127.08l72 -108 72 108 -144 0zm-12.72 -234.96l72 107.88 -72 108 0 -215.88z"/>
  <path class="fil2" d="M25856.28 42761.54l229.17 -640.26 229.2 640.26 -458.37 0zm-323.78 416.52l174.63 0 101.85 -281.94 552.94 0 101.88 281.94 174.59 0 -456.53 -1260.51 -190.99 0 -458.37 1260.51z"/>
  <path class="fil3" d="M28324.67 41910.25l-394.69 0 0 1267.78 394.69 0c416.52,0 672.99,-238.23 672.99,-631.16 0,-392.85 -256.47,-636.62 -672.99,-636.62zm-229.2 134.62l229.2 0c331.05,0 503.84,192.79 503.84,502l0 0c0,309.25 -172.79,494.78 -503.84,494.78l0 0 -229.2 0 0 -996.78z"/>
  <polygon class="fil4" points="31355.1,41910.25 31180.48,41910.25 30782.12,43003.44 30383.76,41910.25 30207.37,41910.25 30685.7,43178.03 30876.7,43178.03 "/>
  <path class="fil5" d="M32566.61 42543.28c0,380.11 280.11,647.52 636.59,647.52l0 0c358.31,0 636.62,-267.41 636.62,-647.52l0 0c0,-380.16 -278.31,-647.56 -636.62,-647.56 -356.48,0 -636.59,267.4 -636.59,647.56zm169.16 0c0,-311.08 200.06,-503.84 467.43,-503.84l0 0c267.4,0 467.46,192.76 467.46,503.84l0 0c0,309.21 -200.06,503.8 -467.46,503.8l0 0c-267.37,0 -467.43,-194.59 -467.43,-503.8l0 0z"/>
  <path class="fil6" d="M35087.74 42543.28c0,380.11 278.3,645.69 632.99,645.69 274.63,0 492.9,-136.39 587.48,-380.16l-198.23 0c-69.14,150.99 -203.73,236.47 -389.25,236.47l0 0c-265.58,0 -463.8,-192.79 -463.8,-502l0 0c0,-311.08 198.22,-503.84 463.8,-503.84l0 0c185.52,0 320.11,85.48 389.25,238.23l0 0 198.23 0c-94.58,-245.5 -312.85,-383.75 -587.48,-383.75l0 0c-354.69,0 -632.99,269.2 -632.99,649.36l0 0z"/>
  <path class="fil7" d="M38214.58 41917.55l-190.99 0 -458.4 1260.48 174.62 0 101.89 -281.91 552.94 0 101.85 281.91 174.62 0 -456.53 -1260.48zm-96.41 203.73l229.2 640.26 -458.37 0 229.17 -640.26z"/>
  <path class="fil8" d="M39900.82 42543.28c0,380.11 278.31,645.69 632.99,645.69 274.61,0 492.91,-136.39 587.48,-380.16l-198.26 0c-69.11,150.99 -203.69,236.47 -389.22,236.47l0 0c-265.57,0 -463.86,-192.79 -463.86,-502l0 0c0,-311.08 198.29,-503.84 463.86,-503.84l0 0c185.53,0 320.11,85.48 389.22,238.23l0 0 198.26 0c-94.57,-245.5 -312.87,-383.75 -587.48,-383.75l0 0c-354.68,0 -632.99,269.2 -632.99,649.36l0 0z"/>
  <polygon class="fil9" points="42623.88,41910.25 42458.32,41910.25 42458.32,43178.03 42623.88,43178.03 "/>
  <path class="fil10" d="M44566.52 41917.55l-190.96 0 -458.43 1260.48 174.62 0 101.89 -281.91 552.94 0 101.85 281.91 174.62 0 -456.53 -1260.48zm-96.41 203.73l229.2 640.26 -458.4 0 229.2 -640.26z"/>
  <path class="fil11" d="M15209.26 40053.28c-127.17,0 -232.55,-103.44 -234.91,-230.29l0 -2194.78c2.33,-127.17 107.7,-230.64 234.88,-230.64l68.51 0 1.23 -76.91 -904.31 0 1.24 76.91 68.5 0c126.83,0 229.98,99.3 234.81,225.35l0 1040.17 -1583.09 0 0 -1037.1c3.64,-128.06 106.82,-228.39 234.88,-228.39l68.51 0 1.24 -76.9 -904.31 0 1.2 76.9 68.54 0c128.48,0 231.67,100.65 234.88,228.67l0 2196.43c-2.4,127.14 -107.81,230.65 -234.95,230.65l-68.51 0 -1.27 77.01 904.45 0 -1.23 -77.01 -68.51 0c-127.14,0 -232.55,-103.51 -234.92,-230.33l0 -1003.69 1583.09 0 0 1006.2c-3.88,127.74 -107.06,227.85 -234.84,227.85l-68.55 0 -1.19 77.02 904.38 -0.07 -1.24 -77.05 -68.51 0z"/>
  <path class="fil11" d="M17019.53 40029.85c-658.56,0 -1101.05,-524.12 -1101.05,-1304.22 0,-780.1 442.49,-1304.22 1101.05,-1304.22 658.57,0 1101.06,524.12 1101.06,1304.22 0,780.1 -442.49,1304.22 -1101.06,1304.22zm0 -2764.4c-862.54,0 -1442.05,586.77 -1442.05,1460.14 0,873.37 579.51,1460.15 1442.05,1460.15 862.55,0 1442.05,-586.78 1442.05,-1460.15 0,-873.37 -579.5,-1460.14 -1442.05,-1460.14z"/>
  <path class="fil11" d="M20778.66 37397.86l91.51 0c122.2,0 223.45,99.44 225.74,221.29l0 1916.54 -2124.18 -2268.18 -5.54 -5.93 -69.14 0 3.52 21.69c0.36,2.26 36.23,226.17 36.23,491.74l0 2056.98c-2.36,122.09 -103.61,221.44 -225.74,221.44l-91.54 0 -1.17 77.04 853.72 0 -1.12 -77.04 -91.55 0c-122.7,0 -221.83,-96.1 -225.64,-218.2l0 -1924.4 2127.25 2269.1 5.54 5.93 44.1 0 21.59 0 -3.07 -21.38c-0.35,-2.5 -35.91,-251.78 -35.91,-502.57l-0.04 -2045.4c3.92,-122.59 103.05,-218.62 225.67,-218.62l91.55 0 1.16 -77.04 -854.07 -0.04 1.13 77.05z"/>
  <path class="fil11" d="M23311.8 40029.85c-658.56,0 -1101.05,-524.12 -1101.05,-1304.22 0,-780.1 442.49,-1304.22 1101.05,-1304.22 658.57,0 1101.06,524.12 1101.06,1304.22 0,780.1 -442.49,1304.22 -1101.06,1304.22zm0 -2764.4c-862.54,0 -1442.05,586.77 -1442.05,1460.14 0,873.37 579.51,1460.15 1442.05,1460.15 862.54,0 1442.05,-586.78 1442.05,-1460.15 0,-873.37 -579.51,-1460.14 -1442.05,-1460.14z"/>
  <path class="fil11" d="M28124.98 39011.82l470.33 -1200.01 450.63 1200.01 -920.96 0zm1588.53 803.38l-1063.31 -2549.74 -66.85 0 0 18.7c0,68.08 -104.64,311.92 -145.17,400.61l-897.86 2130.43c-53.87,118.46 -136.45,185.27 -217.34,216.35 -137.02,-40.04 -246.81,-134.44 -372.57,-271.81 -150.74,-164.61 -489.76,-648.12 -493.22,-653.06 -61.98,-87.56 -155.19,-193.15 -236.71,-252.17 379.16,-37.53 629.46,-416.03 629.46,-770.71 0,-470.64 -303.74,-762.99 -792.69,-762.99l-1087.19 0.11 1.27 76.76 68.47 0c127.18,0 232.55,103.47 234.99,230.29l0 2196.57c-3.29,128.35 -106.44,228.85 -234.81,228.85l-68.51 0 -1.27 77.05 903.18 0 -1.24 -77.05 -68.54 0c-127.18,0 -232.55,-103.43 -234.92,-230.26l0 -2341.24c17.89,0 43.08,-0.39 73.56,-0.88 103.36,-1.56 259.5,-3.95 399.7,3.7 286.98,15.73 463.97,234.63 473.53,585.54 2.33,84.6 -7.48,177.41 -24.34,230.96 -108.73,345.16 -394.9,392.51 -600.71,398.08 -117.3,3.21 -207.44,1.34 -208.32,1.3l-19.12 -0.38 0 74.47 18.7 0c131.13,0 239.92,123.05 349.04,260.14 12.24,15.41 100.36,142.1 193.67,276.19 141.29,203.13 301.42,433.35 328.26,465.42 124.46,148.55 303.74,316.51 603.46,348.12l0 5.78 834.5 0 0 -76.69 -53.52 0c-49.32,0 -96.41,-23.39 -123.01,-61.07 -29.46,-41.77 -33.16,-97.12 -10.94,-159.56l260.6 -664.95 1040.91 0 248.63 662.13c23.25,63.75 19.94,119.77 -9.59,161.96 -26.53,37.92 -73.77,61.49 -123.3,61.49l-53.51 0 0 76.69 929.14 0 0 -77.04 -51.82 0c-107.53,0 -250.83,-62.55 -330.69,-238.09z"/>
  <path class="fil11" d="M31551.4 37316.94l-1337.45 0c-164.82,-0.88 -396.07,-39.55 -469.73,-70.56l-26 -10.93 0 545 77.3 -1.12 0 -89.01c0,-116.7 91.29,-212.09 207.08,-217.13l732.33 0 0.03 2355.56c-5.54,125.98 -108.65,224.69 -234.74,224.69l-68.54 0 -1.23 77.04 904.98 0 -1.24 -77.04 -68.54 0c-127.71,0 -230.86,-100.02 -234.81,-227.12l0 -2353.13 731.02 -0.04c116.6,5.08 207.9,100.47 207.9,217.17l0 89.01 77.25 1.16 0 -545.04 -25.96 10.93c-73.66,31.01 -304.84,69.68 -469.65,70.56z"/>
  <path class="fil11" d="M33607.47 40029.85c-658.56,0 -1101.05,-524.12 -1101.05,-1304.22 0,-780.1 442.49,-1304.22 1101.05,-1304.22 658.57,0 1101.06,524.12 1101.06,1304.22 0,780.1 -442.49,1304.22 -1101.06,1304.22zm0 -2764.4c-862.54,0 -1442.05,586.77 -1442.05,1460.14 0,873.37 579.51,1460.15 1442.05,1460.15 862.55,0 1442.05,-586.78 1442.05,-1460.15 0,-873.37 -579.5,-1460.14 -1442.05,-1460.14z"/>
  <path class="fil11" d="M37348.65 40012.61c-558.13,-0.03 -904.91,-302.43 -904.91,-789.16 0,-252.52 78.7,-457.06 233.96,-608.33 125.49,164.68 298.24,327.45 494,507.15 211.98,194.63 435.68,388.06 745.66,644.7 -105.62,115.36 -287.26,245.64 -568.71,245.64zm913.55 -345.12c132.72,-240.31 172.23,-546.2 111.16,-863.49 -9.45,-49 -2.57,-89.22 19.83,-116.35 21.91,-26.49 59.3,-40.5 108.09,-40.5l0.35 0 78.57 -0.17 0 -76.98 -828.92 0 0 77.05 81.21 0 0.38 0c103.9,0 181.72,55.59 237.92,169.96 98.88,201.12 101.17,465 7.3,694.45 -255.13,-211.92 -440.06,-379.31 -589.39,-514.49 -38.98,-35.32 -75.24,-68.12 -109.25,-98.57 -412.72,-369.46 -622.27,-615.63 -622.27,-935.95 0,-314.33 212.2,-542.47 504.51,-542.47 330.55,0 544.13,232.8 544.13,593.09l0 18.73 74.4 0 72.39 -472.4 -5.3 -6.46c-141,-171.8 -409.99,-285.29 -685.62,-289.14 -479.95,0 -815.16,287.31 -815.16,698.72 0,192.12 45.26,358.38 142.24,521.58 -308.51,162.7 -471.42,417.93 -471.42,739.31 0,601.63 448.8,946.68 1231.41,946.68 293.51,0 546.52,-92.81 732.89,-268.64 307.8,237.11 632.43,232.24 807.83,229.52 15.87,-0.25 30.37,-0.46 43.35,-0.46l18.74 0 0 -75.67 -17.29 -1.3c-241.86,-18.42 -470.01,-211.74 -672.08,-386.05z"/>
  <path class="fil11" d="M41086.6 39972.75l-759.64 0 0 -2494.99 759.64 0c661.81,0 1106.48,502.11 1106.48,1249.4 0,745.03 -444.67,1245.59 -1106.48,1245.59zm0 -2651.38l-1358.23 -0.35 1.27 76.66 68.51 0c126.57,0 233.53,95.22 233.53,207.89l0 2217.74c-2.68,126.93 -108.09,230.19 -234.95,230.19l-68.54 0 -1.24 77.01 1359.65 0c861.83,0 1440.88,-563.95 1440.88,-1403.35 0,-840.85 -579.05,-1405.79 -1440.88,-1405.79z"/>
  <path class="fil11" d="M44578.98 39464.87c-126.9,312.91 -285.83,506.87 -685.63,506.87l-549.24 0 0 -1149.07 653.91 -0.04c95,3.74 169.44,81.21 169.44,176.32l0 76.84 76.13 0.91 0 -664.63 -76.13 1.06 0 76.8c0,95.46 -77.68,174.55 -172.83,176.32l-650.52 0 0 -1186.82 787.47 -0.03c114.44,6.95 204.12,102.3 204.12,216.99l0 89.04 77.43 1.17 0 -547.3 -26 11c-72.17,30.48 -300.91,69.01 -464.78,70.56l-1176.27 0 1.27 76.8 68.51 0c120.51,0 220.98,90.31 233.58,208.1l0 2216.96c-2.4,127.18 -107.81,230.65 -234.95,230.65l-68.55 0 -1.2 77.01 1673.83 0 243.98 -677.19 -78.85 0 -4.72 11.68z"/>
  <path class="fil11" d="M47708.81 38104.53c0,-483.27 -320.08,-783.52 -835.31,-783.52l-1050.89 -0.11 1.27 76.8 68.51 0c121.18,0 221.69,90.88 233.68,209.48l0 2215.62c-2.5,127.18 -107.98,230.65 -235.05,230.65l-68.55 0 -1.23 77.04 904.87 0 -1.2 -77.04 -68.54 0c-127.14,0 -232.55,-103.47 -234.92,-230.3l0 -2345.93 437.8 0c312.56,0 505.14,219.81 515.16,587.97 2.33,85.41 -7.51,178.93 -24.48,232.73 -171.42,544.09 -782.43,419.56 -808.36,413.98l-22.96 -4.93 0.91 72.03 9.88 5.19c253.33,133.56 564.13,124 810.93,-24.91 234.18,-141.28 368.48,-379.94 368.48,-654.75z"/>
  <path class="fil11" d="M48421.84 39011.82l470.36 -1200.01 450.6 1200.01 -920.96 0zm1588.52 803.38l-1063.3 -2549.74 -66.86 0 0 18.7c0,68.08 -104.63,311.92 -145.16,400.61l-897.86 2130.43c-79.83,175.54 -222.74,238.09 -329.85,238.09l-54.36 0 0 77.04 834.5 0 0 -76.69 -53.52 0c-49.28,0 -96.41,-23.39 -123.01,-61.07 -29.46,-41.77 -33.16,-97.12 -10.94,-159.56l260.6 -664.95 1040.9 0 248.64 662.13c23.29,63.75 19.93,119.77 -9.59,161.96 -26.53,37.92 -73.77,61.49 -123.3,61.49l-53.52 0 0 76.69 929.15 0 0 -77.04 -51.82 0c-107.53,0 -250.83,-62.55 -330.7,-238.09z"/>
  <path class="fil11" d="M52253.18 37397.93l83.26 0c104.21,0 186.09,74.26 190.46,171.91l0 1562.1c-0.91,533.36 -348.08,891.71 -863.88,891.71 -491.74,0 -822.11,-378.85 -822.11,-942.76l-0.04 -1510.74c4.31,-98.21 86.01,-172.26 190.08,-172.26l83.29 0 0 -77.04 -841.76 0 0 77.04 83.22 0c106.78,0 188.73,76.41 190.64,177.38l0 1563.79c0,626.08 448.87,1046.73 1116.96,1046.73 649.64,0 1086.14,-423.4 1086.14,-1053.61l-0.04 -1564.78c6.17,-98.21 86.25,-169.51 190.39,-169.51l83.26 0 0 -77.04 -769.87 0.07 0 77.01z"/>
  <path class="fil11" d="M55109.17 39453.15l-4.76 11.71c-126.86,312.95 -285.79,506.87 -685.63,506.87l-549.24 0 0 -2342.97c2.44,-127.14 107.81,-230.61 234.99,-230.61l68.51 0 1.23 -77.05 -904.38 0 1.2 77.05 68.51 0c127.18,0 232.55,103.47 234.99,230.25l0 2194.32c-2.37,127.17 -107.74,230.64 -234.92,230.64l-68.51 0 -1.23 77.05 1673.82 0 244.34 -677.09 -78.92 -0.17z"/>
  <path class="fil11" d="M56088.18 39011.82l470.32 -1200.01 450.64 1200.01 -920.96 0zm1919.21 1041.47c-107.52,0 -250.82,-62.55 -330.69,-238.09l-1063.31 -2549.74 -66.85 0 0 18.7c0,68.08 -104.63,311.92 -145.17,400.61l-897.85 2130.43c-79.83,175.54 -222.74,238.09 -329.85,238.09l-54.36 0 0 77.04 834.49 0 0 -76.69 -53.51 0c-49.32,0 -96.42,-23.39 -123.02,-61.07 -29.45,-41.77 -33.16,-97.12 -10.97,-159.56l260.64 -664.95 1040.9 0 248.64 662.13c23.25,63.75 19.93,119.77 -9.6,161.96 -26.56,37.92 -73.76,61.49 -123.29,61.49l-53.52 0 0 76.69 929.15 0 0 -77.04 -51.83 0z"/>
  <path class="fil12" d="M31549.48 27364.76l-1636.01 0c-83.08,1.95 -169.89,3.99 -260.95,6.28l0 0c21.35,9.49 52.11,23.75 88.3,42.55l0 0c79.87,41.52 214.92,103.01 291.58,196.25l0 0c147.24,179.1 147.1,395.18 147.1,611.08l0 0 0 550.79 0 793.54 0 955.15c0,345.16 0,690.35 0,1035.51l0 0 0 1034.52 0 952.46 0 789.09 0 544.48 0 218.65c0,0.36 0,0.71 0,1.03l0 0c-13.58,165.66 -107.06,398.85 -251.67,498.82l0 0c-31.11,21.49 -105.23,47.14 -156.63,64.81l0 0c-39.55,9.07 -79.09,18.13 -118.68,27.2l0 0 58.57 0 1845.02 0 3.43 0c-19.27,-9.07 -38.6,-18.13 -57.86,-27.2l0 0c-46.28,-17.29 -102.73,-31.33 -118.85,-39.16l0 0c-306.74,-148.59 -302.83,-452.01 -320.61,-728.94l0 0c-40.11,-623.93 -60.89,-1436.48 -19.82,-2059.38l0 0c23.21,-352 148.98,-635.35 342.16,-862.47l0 0c112.46,-152.47 251.1,-288.18 413.52,-400.76l0 0c930.7,-644.84 2174.1,-563.38 3271.24,-491.56l0 0c103.51,6.78 205.53,13.48 305.65,19.41l0 0c729.72,43.32 1484.31,88.12 2225.32,1.66l0 0c325.37,-37.96 782.46,-123.76 1060.8,-422.74l0 0c-585.29,226.94 -1232.32,223.31 -1855.18,219.39l0 0 0 -3337.94c610.76,-17.26 1246.32,-75.08 1847.42,64.55l0 0c34.12,7.91 68.09,16.48 101.85,25.65l0 0c213.78,57.93 439.7,119.28 679.73,290.83l0 0c274.46,196.11 415.93,428.66 480.41,537.11l0 0c496.93,835.8 188.6,1803.01 111.91,2020.39l0 0c-60.19,170.5 -158.37,428.55 -389.19,694.37l0 0c-412.93,475.55 -949.68,622.62 -1204.14,671.44l0 0c-320.32,83.79 -657.93,116.38 -984.21,132.61l0 0c-609.11,30.27 -1217.72,-29.24 -1824.74,-72.25l0 0c-300.15,-21.23 -600.85,-39.33 -901.49,-52.7l0 0c-297.68,-13.23 -596.44,-17.43 -893.59,8.15l0 0c-239.11,20.53 -492.33,49.77 -706.01,167.6l0 0c-148.8,82.09 -258.13,204.08 -314.22,357.4l0 0c102.02,-59.72 245.5,-130.91 426.33,-182.81l0 0c98.11,-28.11 192.41,-46.32 344.31,-64.49l0 0c190.43,-22.75 462.95,-44.45 805.29,-35.98l0 0 0 2877.36c0,94.23 6.84,188.14 -25.65,278.45l0 0c-36.48,101.32 -77.72,198.54 -157.2,273.76l0 0c-71.65,67.8 -162.77,111.16 -258.94,131.12l0 0c0.85,2.97 1.77,4.73 2.61,7.13l0 0 1092.27 0 0 -3567.82 941.25 37.08 0 2522.85c0,218.94 30.87,445.53 -65.4,650.53l0 0c-86.61,184.39 -270.62,321.45 -472.44,350.23l0 0c1.02,2.61 2.18,4.84 3.35,7.13l0 0 1855.04 0 4.87 -7.13c-201.4,-22.5 -377.15,-157.48 -442.52,-342.58l0 0c-64.98,-183.94 -56.9,-367.59 -56.9,-558.66l0 0 0 -2603.85c1199.62,-9.88 2663.08,-159.7 3515.74,-1065.78l0 0c681.22,-723.93 784.58,-1964.76 199.5,-2771.21l0 0c-508.21,-700.54 -1327.15,-891.04 -2168.14,-966.72l0 0 -2835.38 0.92c82.55,14.47 227.05,58.77 337.61,198.44l0 0c100.26,126.68 119.73,265.04 124.67,320.82l0 0 0 2985.45 -941.25 -18.56 0 -3486.29 -1114.1 0c-7.16,38.98 3.98,37.82 20.56,36.62l0 0c7.55,-0.57 16.23,-1.09 24.84,2.15l0 0c451.66,170.71 407.95,520.31 414.83,917.01l0 0c7.37,427.64 2.01,870.09 0,1296.6l0 0c-1.9,405.1 2.96,810.61 0.88,1215.46l0 0c-1124.51,11.22 -2358.32,136.49 -3141.02,1001.08l0 0 -201.44 241.3 0 -4070.42c0,-152.65 74.47,-312.95 172.79,-426.97l0 0c48.65,-56.41 103.4,-94.68 170,-126.54l0 0c156.11,-74.65 176.18,-80.36 175.86,-86.29l0 0c-0.14,-2.47 -4.12,-4.83 -12.38,-7.06z"/>
 </g>
</svg>
